<svg width="28" height="28" viewBox="0 0 28 28" fill="none" xmlns="http://www.w3.org/2000/svg">
<path d="M25.6667 7.5835H18.6667" stroke="#2C3941" stroke-width="1.5" stroke-miterlimit="10" stroke-linecap="round" stroke-linejoin="round"/>
<path d="M6.99999 7.5835H2.33333" stroke="#2C3941" stroke-width="1.5" stroke-miterlimit="10" stroke-linecap="round" stroke-linejoin="round"/>
<path d="M11.6667 11.6667C13.9218 11.6667 15.75 9.8385 15.75 7.58333C15.75 5.32817 13.9218 3.5 11.6667 3.5C9.4115 3.5 7.58333 5.32817 7.58333 7.58333C7.58333 9.8385 9.4115 11.6667 11.6667 11.6667Z" stroke="#2C3941" stroke-width="1.5" stroke-miterlimit="10" stroke-linecap="round" stroke-linejoin="round"/>
<path d="M25.6667 20.4165H21" stroke="#2C3941" stroke-width="1.5" stroke-miterlimit="10" stroke-linecap="round" stroke-linejoin="round"/>
<path d="M9.33333 20.4165H2.33333" stroke="#2C3941" stroke-width="1.5" stroke-miterlimit="10" stroke-linecap="round" stroke-linejoin="round"/>
<path d="M16.3333 24.5002C18.5885 24.5002 20.4167 22.672 20.4167 20.4168C20.4167 18.1617 18.5885 16.3335 16.3333 16.3335C14.0782 16.3335 12.25 18.1617 12.25 20.4168C12.25 22.672 14.0782 24.5002 16.3333 24.5002Z" stroke="#2C3941" stroke-width="1.5" stroke-miterlimit="10" stroke-linecap="round" stroke-linejoin="round"/>
</svg>
