<svg width="28" height="28" viewBox="0 0 28 28" fill="none" xmlns="http://www.w3.org/2000/svg">
<path d="M10.5 25.6668H17.5C23.3333 25.6668 25.6667 23.3335 25.6667 17.5002V10.5002C25.6667 4.66683 23.3333 2.3335 17.5 2.3335H10.5C4.66668 2.3335 2.33334 4.66683 2.33334 10.5002V17.5002C2.33334 23.3335 4.66668 25.6668 10.5 25.6668Z" stroke="#2C3941" stroke-width="1.5" stroke-linecap="round" stroke-linejoin="round"/>
<path d="M18.0833 21.5832C19.3667 21.5832 20.4167 20.5332 20.4167 19.2498V8.74984C20.4167 7.4665 19.3667 6.4165 18.0833 6.4165C16.8 6.4165 15.75 7.4665 15.75 8.74984V19.2498C15.75 20.5332 16.7883 21.5832 18.0833 21.5832Z" stroke="#2C3941" stroke-width="1.5" stroke-linecap="round" stroke-linejoin="round"/>
<path d="M9.91668 21.5835C11.2 21.5835 12.25 20.5335 12.25 19.2502V15.1668C12.25 13.8835 11.2 12.8335 9.91668 12.8335C8.63334 12.8335 7.58334 13.8835 7.58334 15.1668V19.2502C7.58334 20.5335 8.62168 21.5835 9.91668 21.5835Z" stroke="#2C3941" stroke-width="1.5" stroke-linecap="round" stroke-linejoin="round"/>
</svg>
