<svg width="60" height="60" viewBox="0 0 60 60" fill="none" xmlns="http://www.w3.org/2000/svg">
<circle opacity="0.3" cx="30" cy="30" r="30" fill="#FF77F1"/>
<circle opacity="0.6" cx="30" cy="30" r="26.25" fill="#FF77F1"/>
<circle cx="30" cy="30" r="22.5" fill="#FF77F1"/>
<path d="M19.75 34.3269V26.5384V22.4807C19.75 21.9284 20.1977 21.4807 20.75 21.4807H39.25C39.8023 21.4807 40.25 21.9284 40.25 22.4807V28.2692V37.5192C40.25 38.0715 39.8023 38.5192 39.25 38.5192H20.75C20.1977 38.5192 19.75 38.0715 19.75 37.5192V36.0576V34.3269Z" stroke="white" stroke-width="2"/>
<path d="M19 30L41 30" stroke="white" stroke-width="2"/>
<path d="M22.5 39.5193V40.2501C22.5 40.8023 22.9477 41.2501 23.5 41.2501H36.5C37.0523 41.2501 37.5 40.8023 37.5 40.2501V39.5193" stroke="white" stroke-width="2"/>
<path d="M24 21V19C24 18.4477 24.4477 18 25 18H35C35.5523 18 36 18.4477 36 19V21" stroke="white" stroke-width="2"/>
</svg>
