<svg width="28" height="28" viewBox="0 0 28 28" fill="none" xmlns="http://www.w3.org/2000/svg">
<path d="M4.86488 17.8498L10.1499 23.1348C12.3199 25.3048 15.8432 25.3048 18.0249 23.1348L23.1465 18.0131C25.3165 15.8431 25.3165 12.3198 23.1465 10.1381L17.8499 4.86481C16.7415 3.75648 15.2132 3.16148 13.6499 3.24315L7.81655 3.52315C5.48321 3.62815 3.62821 5.48315 3.51155 7.80481L3.23155 13.6381C3.16155 15.2131 3.75655 16.7415 4.86488 17.8498Z" stroke="#2C3941" stroke-width="1.5" stroke-linecap="round" stroke-linejoin="round"/>
<path d="M11.0832 14C12.694 14 13.9999 12.6941 13.9999 11.0833C13.9999 9.47246 12.694 8.16663 11.0832 8.16663C9.47236 8.16663 8.16652 9.47246 8.16652 11.0833C8.16652 12.6941 9.47236 14 11.0832 14Z" stroke="#2C3941" stroke-width="1.5" stroke-linecap="round"/>
</svg>
