<svg width="60" height="60" viewBox="0 0 60 60" fill="none" xmlns="http://www.w3.org/2000/svg">
<circle opacity="0.3" cx="30" cy="30" r="30" fill="#E59724"/>
<circle opacity="0.6" cx="30" cy="30" r="26.25" fill="#E59724"/>
<circle cx="30" cy="30" r="22.5" fill="#E59724"/>
<path d="M42 22.5V37.5C42 43.5 40.5 45 34.5 45H25.5C19.5 45 18 43.5 18 37.5V22.5C18 16.5 19.5 15 25.5 15H34.5C40.5 15 42 16.5 42 22.5Z" stroke="white" stroke-width="2" stroke-linecap="round" stroke-linejoin="round"/>
<path d="M33 20.25H27" stroke="white" stroke-width="2" stroke-linecap="round" stroke-linejoin="round"/>
<path d="M30 40.65C31.2841 40.65 32.3251 39.6091 32.3251 38.325C32.3251 37.0409 31.2841 36 30 36C28.716 36 27.675 37.0409 27.675 38.325C27.675 39.6091 28.716 40.65 30 40.65Z" stroke="white" stroke-width="2" stroke-linecap="round" stroke-linejoin="round"/>
</svg>
