<svg width="60" height="60" viewBox="0 0 60 60" fill="none" xmlns="http://www.w3.org/2000/svg">
<circle opacity="0.3" cx="30" cy="30" r="30" fill="#FFB906"/>
<circle opacity="0.6" cx="30" cy="30" r="26.25" fill="#FFB906"/>
<circle cx="30" cy="30" r="22.5" fill="#FFB906"/>
<path d="M32.1625 19.3875L34.3625 23.7875C34.6625 24.4 35.4625 24.9875 36.1375 25.1L40.125 25.7625C42.675 26.1875 43.275 28.0375 41.4375 29.8625L38.3375 32.9625C37.8125 33.4875 37.525 34.5 37.6875 35.225L38.575 39.0625C39.275 42.1 37.6625 43.275 34.975 41.6875L31.2375 39.475C30.5625 39.075 29.45 39.075 28.7625 39.475L25.025 41.6875C22.35 43.275 20.725 42.0875 21.425 39.0625L22.3125 35.225C22.475 34.5 22.1875 33.4875 21.6625 32.9625L18.5625 29.8625C16.7375 28.0375 17.325 26.1875 19.875 25.7625L23.8625 25.1C24.525 24.9875 25.325 24.4 25.625 23.7875L27.825 19.3875C29.025 17 30.975 17 32.1625 19.3875Z" stroke="white" stroke-width="2" stroke-linecap="round" stroke-linejoin="round"/>
</svg>
